<?xml version="1.0" standalone="no"?>
<!DOCTYPE svg PUBLIC "-//W3C//DTD SVG 20010904//EN"
 "http://www.w3.org/TR/2001/REC-SVG-20010904/DTD/svg10.dtd">
<svg version="1.0" xmlns="http://www.w3.org/2000/svg"
 width="942.000000pt" height="942.000000pt" viewBox="0 0 942.000000 942.000000"
 preserveAspectRatio="xMidYMid meet">
<metadata>
Created by potrace 1.11, written by Peter Selinger 2001-2013
</metadata>
<g transform="translate(0.000000,942.000000) scale(0.100000,-0.100000)"
fill="#000000" stroke="none">
<path d="M4628 8836 c-1 -2 -52 -6 -113 -9 -60 -4 -119 -8 -130 -10 -11 -3
-41 -8 -66 -11 -94 -13 -295 -72 -399 -118 -149 -66 -326 -173 -420 -254 -124
-107 -273 -282 -329 -387 -55 -100 -108 -211 -116 -239 -2 -5 -3 -9 -5 -10 -1
-2 -3 -10 -5 -18 -2 -8 -14 -53 -28 -100 -13 -47 -30 -119 -37 -160 -7 -41
-16 -97 -20 -123 -8 -54 -6 -376 4 -452 18 -133 75 -362 98 -389 4 -6 8 -16 8
-23 0 -13 78 -176 111 -232 99 -167 284 -353 464 -467 41 -26 75 -50 75 -53 0
-3 -24 -6 -53 -7 -76 -1 -164 -12 -317 -40 -156 -30 -149 -28 -175 -37 -11 -3
-31 -8 -45 -11 -14 -3 -52 -12 -85 -21 -33 -9 -64 -18 -70 -19 -5 -1 -57 -18
-115 -36 -58 -19 -107 -34 -110 -35 -7 -2 -27 -10 -150 -58 -58 -22 -111 -45
-117 -50 -7 -5 -13 -6 -13 -3 0 4 -12 0 -27 -8 -16 -8 -82 -41 -148 -72 -178
-86 -475 -267 -538 -328 -6 -6 -22 -19 -34 -27 -51 -35 -198 -178 -257 -248
-103 -124 -216 -313 -230 -387 -2 -10 -9 -32 -15 -47 -24 -61 -39 -178 -39
-297 0 -199 41 -384 113 -511 42 -72 172 -205 210 -215 14 -3 25 -10 25 -14 0
-4 21 -15 48 -24 26 -10 56 -21 67 -26 18 -8 74 -21 150 -35 63 -12 273 -12
343 1 214 37 376 130 467 269 65 99 85 177 72 285 -26 225 -200 450 -387 500
-113 31 -310 3 -428 -60 -78 -41 -125 -89 -159 -159 -22 -47 -26 -69 -26 -141
0 -101 6 -132 38 -185 33 -56 71 -90 135 -118 47 -21 67 -24 135 -21 106 6
115 7 115 17 0 4 5 5 10 2 6 -3 10 -1 10 6 0 7 3 9 7 6 6 -7 63 31 95 63 20
21 61 100 51 100 -4 0 -2 5 4 11 21 21 -11 167 -49 222 -23 32 -19 33 30 8 45
-23 98 -82 119 -130 54 -126 30 -241 -67 -328 -31 -28 -115 -70 -153 -77 -15
-2 -35 -7 -46 -11 -10 -3 -60 -7 -111 -9 -171 -8 -284 27 -367 112 -92 94
-135 230 -136 427 0 135 5 174 38 260 20 53 78 155 109 192 72 86 181 182 271
242 39 25 72 48 75 51 17 17 260 140 276 140 8 0 14 5 14 10 0 6 6 10 14 10 7
0 43 14 79 30 37 17 75 31 84 33 10 1 23 6 29 10 27 16 366 117 395 117 10 0
20 4 24 9 3 6 13 9 23 9 9 0 28 2 42 5 14 3 36 8 50 11 14 3 45 10 70 16 25 5
72 14 105 20 33 5 71 12 85 15 32 6 107 17 145 20 17 2 30 4 30 5 0 1 11 3 25
4 14 2 50 6 80 10 30 4 78 9 105 11 72 6 183 15 235 19 25 3 126 8 225 11
l180 6 -1 -628 c-1 -345 -2 -632 -3 -638 -1 -6 -65 -10 -174 -9 l-174 1 -121
124 -122 124 0 -550 0 -549 47 44 c62 60 99 95 165 156 l56 52 160 0 c111 0
162 -4 165 -12 2 -6 3 -348 2 -761 -1 -547 -4 -749 -12 -748 -14 3 -196 133
-205 147 -5 7 -8 7 -8 1 0 -6 -3 -6 -8 1 -6 9 -70 56 -127 94 -13 8 -46 32
-74 52 -56 41 -61 40 -31 -9 11 -18 17 -33 13 -33 -3 0 2 -9 12 -20 10 -11 15
-20 10 -20 -4 0 -3 -6 3 -13 5 -6 178 -345 382 -752 205 -407 379 -749 386
-759 13 -19 14 -18 23 5 12 31 244 510 540 1114 185 378 242 498 238 501 -2 2
-30 -16 -63 -39 -68 -49 -256 -177 -282 -192 -9 -5 -19 -13 -22 -16 -6 -7 -98
-69 -102 -69 -3 0 -2 1506 1 1522 0 3 63 6 140 6 l139 -1 50 -46 c77 -71 176
-159 204 -181 l25 -19 0 545 0 545 -40 -38 c-22 -21 -55 -54 -72 -73 -18 -19
-54 -57 -80 -83 l-46 -48 -156 -2 c-94 -1 -157 2 -161 8 -9 14 -9 1256 0 1261
21 13 905 4 1058 -11 25 -3 78 -7 119 -11 41 -3 89 -7 105 -9 17 -3 56 -7 86
-11 30 -3 57 -7 60 -9 3 -2 33 -7 65 -10 33 -4 63 -9 66 -11 3 -2 19 -6 35 -8
50 -10 67 -14 134 -31 36 -9 72 -18 80 -20 45 -10 238 -79 297 -105 37 -18 73
-33 78 -34 49 -11 288 -154 415 -249 100 -75 317 -283 384 -368 72 -90 101
-118 129 -123 16 -3 27 0 28 7 3 29 -4 54 -24 87 -35 56 -64 110 -96 175 -27
56 -38 81 -71 160 -17 42 -48 140 -65 205 -12 49 -17 73 -30 145 -2 11 -6 34
-9 50 -3 17 -8 64 -12 105 -3 41 -8 86 -10 100 -5 32 -5 292 1 345 15 145 23
210 30 235 2 8 7 35 10 60 9 61 50 251 85 390 16 63 31 126 34 140 2 14 9 37
14 51 6 15 9 29 6 32 -2 2 0 16 6 31 5 15 12 41 15 59 4 18 11 51 17 75 6 23
9 45 6 47 -2 3 -18 -7 -35 -23 -58 -51 -84 -73 -171 -144 -48 -38 -97 -78
-108 -88 -12 -10 -51 -38 -86 -62 -36 -24 -71 -50 -79 -56 -50 -43 -316 -200
-431 -255 -203 -97 -430 -178 -598 -214 -48 -10 -55 -11 -55 -13 0 -1 -11 -3
-25 -6 -14 -2 -59 -11 -100 -19 -41 -8 -88 -17 -105 -19 -88 -14 -166 -25
-215 -31 -30 -3 -66 -8 -80 -10 -27 -4 -146 -15 -225 -21 -27 -2 -63 -5 -80
-8 -28 -4 -29 -3 -10 10 210 148 311 246 407 394 32 50 102 177 103 190 0 3 6
14 12 25 21 38 75 211 93 300 18 88 22 110 37 225 9 74 9 402 -1 465 -4 28
-10 64 -12 80 -32 207 -146 471 -287 664 -109 150 -294 327 -417 399 -25 14
-47 29 -50 33 -3 3 -32 21 -65 38 -33 18 -67 36 -75 41 -65 37 -311 124 -385
135 -11 2 -40 6 -65 10 -25 3 -51 8 -58 11 -8 2 -57 7 -110 10 -53 3 -102 7
-109 9 -6 2 -13 2 -15 1z m187 -739 c111 -27 315 -111 315 -129 0 -4 4 -8 10
-8 17 0 102 -63 168 -125 145 -135 233 -296 267 -485 12 -70 13 -268 2 -316
-3 -12 -8 -38 -11 -57 -18 -110 -110 -304 -197 -411 -254 -315 -650 -441
-1023 -326 -36 12 -67 20 -68 20 -8 -4 -181 98 -225 132 -192 147 -327 364
-370 593 -9 52 -10 225 -1 295 34 253 184 511 383 660 83 63 224 133 295 147
42 8 55 11 55 13 0 1 18 3 39 6 22 2 41 6 44 8 10 11 261 -3 317 -17z"/>
</g>
</svg>
